# xmcd CD database file
#
# Track frame offsets:
#	150
#	20812
#	86857
#	179682
#
# Disc length: 3135 seconds
#
# Revision: 1
# Processed by: cddbd v1.5.2PL0 Copyright (c) Steve Scherf et al.
# Submitted via: CDex 1.70beta2
#
DISCID=340c3d04
DTITLE=Jim O'rourke  -  坂田明 - およばれ - Tetrodotoxin 
DYEAR=2005
DGENRE=Jazz
TTITLE0=こんだて/Luciferin 
TTITLE1=きんべん/Deficiency 
TTITLE2=かばん/Crotlotoxin 
TTITLE3=こうもりがさのしゅうぜん/Syuzen 
EXTD=YEAR: 2005
EXTT0=
EXTT1=
EXTT2=
EXTT3=
PLAYORDER=
